<?xml version="1.0" standalone="no"?>
<!DOCTYPE svg PUBLIC "-//W3C//DTD SVG 20010904//EN"
 "http://www.w3.org/TR/2001/REC-SVG-20010904/DTD/svg10.dtd">
<svg version="1.0" xmlns="http://www.w3.org/2000/svg"
 width="702.000000pt" height="613.000000pt" viewBox="0 0 702.000000 613.000000"
 preserveAspectRatio="xMidYMid meet">

<g transform="translate(0.000000,613.000000) scale(0.100000,-0.100000)"
fill="#000000" stroke="none">
<path d="M618 6093 c-59 -102 -95 -345 -84 -567 9 -192 24 -186 18 8 -3 106 0
200 8 259 12 89 54 255 68 269 4 4 33 -25 64 -65 137 -173 277 -311 440 -434
162 -122 468 -299 603 -348 28 -10 52 -20 54 -21 4 -4 -38 -72 -47 -76 -9 -4
-74 -147 -91 -200 -7 -21 -14 -38 -16 -38 -3 0 -21 9 -42 21 -82 45 -153 107
-367 315 -6 6 -40 43 -75 82 -35 40 -68 69 -74 65 -6 -3 -7 -1 -3 6 9 14 -12
43 -25 35 -5 -3 -16 10 -24 30 -8 19 -19 38 -25 41 -6 4 -7 11 -4 17 4 6 3 8
-2 5 -5 -3 -38 49 -73 116 -85 163 -138 254 -175 302 -79 103 -74 79 12 -54
79 -122 253 -454 248 -473 -1 -7 -1 -9 2 -5 2 5 10 -2 16 -15 21 -40 41 -73
47 -78 10 -9 109 -160 109 -166 0 -4 -8 0 -17 7 -16 13 -17 12 -4 -3 7 -10 17
-16 21 -13 14 9 134 -140 125 -155 -3 -4 2 -13 9 -19 10 -8 16 -9 21 -1 3 5
-2 10 -12 11 -12 0 -13 2 -5 6 17 6 74 -46 65 -60 -3 -6 -1 -7 5 -4 11 8 87
-49 168 -124 60 -56 64 -43 -47 -186 -42 -54 -88 -123 -103 -152 -23 -49 -24
-56 -11 -87 8 -19 10 -34 5 -34 -4 0 -10 5 -12 10 -1 6 -3 -87 -3 -206 1 -119
-1 -212 -3 -205 -9 26 -22 8 -22 -29 0 -22 -4 -40 -10 -40 -5 0 -10 -17 -11
-37 0 -28 -2 -33 -8 -19 -7 19 -8 19 -15 1 -4 -10 -2 -21 5 -25 8 -6 8 -9 0
-14 -6 -4 -12 -1 -12 6 -1 7 -5 -5 -10 -27 -5 -27 -6 -17 -2 33 6 80 -5 94
-25 31 -7 -22 -21 -59 -31 -82 -11 -23 -41 -92 -69 -153 -27 -61 -68 -142 -90
-180 -55 -95 -194 -257 -281 -328 l-72 -60 -92 2 c-61 1 -85 -2 -72 -8 11 -5
43 -9 70 -10 47 -1 49 -1 30 -16 -16 -12 -37 -15 -95 -11 l-75 5 55 -12 c53
-12 54 -13 23 -20 -32 -7 -87 3 -156 30 -20 7 -41 14 -45 14 -14 -1 63 -39 81
-40 9 0 17 -5 17 -10 0 -10 -27 -8 -139 11 -57 9 -85 32 -124 98 -21 36 -19
38 12 12 29 -25 139 -45 202 -37 28 4 88 25 135 47 72 36 101 58 212 167 226
223 330 375 412 607 10 28 26 70 35 95 35 94 45 347 18 430 -19 56 -49 99 -77
110 -21 9 -21 9 2 9 13 1 20 5 17 11 -4 6 -11 8 -16 5 -5 -4 -9 -1 -9 5 0 6
-12 15 -27 21 -40 15 -16 30 32 19 56 -13 56 -4 -1 12 l-47 13 36 35 c19 19
64 70 100 113 52 61 67 87 72 121 10 63 -10 102 -50 99 -17 -2 -62 -4 -101 -5
-83 -3 -137 -33 -180 -98 -30 -45 -41 -48 -77 -20 -20 16 -27 32 -30 68 -3 38
-4 35 -4 -15 0 -55 3 -65 24 -79 13 -8 38 -14 55 -12 25 2 35 11 55 50 41 78
149 119 200 76 20 -16 15 -30 -6 -18 -11 5 -26 10 -33 10 -7 -1 -1 -7 13 -15
23 -13 26 -19 22 -57 -5 -49 -5 -49 -95 -83 -109 -43 -121 -61 -106 -166 7
-55 6 -66 -9 -76 -9 -7 -11 -13 -5 -13 21 0 13 -17 -10 -23 -13 -3 -54 -17
-92 -31 -83 -31 -91 -27 -106 52 -10 55 -5 100 17 142 7 14 13 48 12 75 -1 46
-1 48 -10 20 -5 -16 -7 -41 -4 -54 5 -20 4 -21 -8 -10 -7 8 -17 28 -22 44 -6
21 -9 25 -12 13 -3 -10 0 -25 5 -34 10 -17 -6 -74 -20 -74 -11 0 -10 17 4 39
9 14 8 23 -4 40 -15 21 -15 21 -33 1 -10 -11 -14 -20 -8 -20 7 0 6 -12 -1 -35
-8 -27 -12 -31 -18 -17 -5 14 -7 13 -7 -5 -1 -13 -7 -23 -13 -23 -7 0 -24 -9
-38 -20 -36 -28 -41 -25 -34 18 3 20 1 48 -4 62 -8 22 -5 27 20 43 37 22 62
80 54 126 -6 39 -116 275 -116 250 0 -28 28 -97 65 -160 47 -80 49 -137 5
-181 -26 -25 -36 -29 -63 -24 -29 6 -30 5 -12 -8 19 -15 19 -15 -10 -16 -16 0
-37 -5 -45 -10 -11 -8 -8 -9 13 -4 22 5 27 3 26 -12 0 -11 -3 -14 -6 -6 -9 22
-23 1 -24 -36 0 -29 -2 -33 -9 -17 -7 18 -8 18 -15 -8 -4 -15 -10 -26 -12 -23
-3 3 -18 -10 -35 -27 -29 -32 -29 -32 -27 -7 5 64 -2 92 -30 121 -38 37 -82
39 -116 4 -14 -13 -25 -36 -25 -50 0 -34 25 -82 50 -95 11 -6 18 -15 14 -21
-3 -6 4 -8 18 -6 12 2 17 2 10 0 -7 -3 -10 -9 -6 -14 3 -5 -6 -4 -21 3 -18 8
-22 14 -13 20 10 6 10 8 1 8 -7 0 -15 -1 -18 -2 -2 -2 -12 6 -21 17 -15 19
-15 19 -2 -5 29 -48 80 -80 143 -88 l60 -7 5 -41 c4 -23 13 -52 22 -66 16 -24
15 -26 -58 -116 -40 -51 -78 -102 -85 -114 -16 -31 -4 -18 73 82 81 105 95
119 104 96 7 -18 -14 -49 -27 -40 -5 3 -8 2 -7 -3 4 -15 -23 -54 -34 -47 -6 4
-8 3 -5 -4 4 -5 -9 -34 -28 -64 -42 -62 -151 -280 -160 -320 -4 -16 -11 -28
-15 -28 -5 0 -6 -10 -2 -22 4 -16 2 -19 -8 -13 -8 5 -11 4 -7 -2 8 -13 -12
-85 -22 -79 -5 3 -6 -7 -4 -22 3 -19 2 -23 -5 -14 -7 11 -11 7 -16 -13 -4 -15
-5 -30 -1 -33 3 -3 5 3 5 13 0 10 3 16 6 12 9 -8 -6 -48 -16 -42 -4 3 -10 -5
-13 -18 -3 -12 -15 -58 -26 -102 -12 -44 -21 -105 -22 -135 -1 -64 -16 -116
-19 -65 -2 26 -3 24 -11 -13 -16 -81 2 -162 56 -251 27 -44 51 -78 54 -76 2 3
-1 11 -7 17 -7 7 -12 16 -12 21 0 5 9 -2 21 -17 11 -14 17 -31 13 -37 -4 -7
-3 -9 3 -6 5 3 24 -12 42 -33 18 -22 36 -39 39 -38 13 3 62 -25 62 -36 0 -6
-5 -5 -12 2 -15 15 -32 16 -23 2 3 -5 2 -10 -4 -10 -5 0 -12 4 -15 9 -3 4 -17
6 -31 3 -20 -3 -34 4 -65 37 -22 23 -54 65 -71 94 -29 50 -30 50 -24 17 4 -19
13 -50 21 -68 7 -18 11 -38 8 -45 -7 -19 39 -57 83 -68 21 -6 139 -13 263 -16
l225 -6 70 -64 c115 -107 165 -168 172 -210 3 -21 16 -48 29 -59 16 -16 24
-38 29 -80 3 -33 13 -115 22 -184 9 -72 13 -155 10 -197 -5 -65 -12 -84 -57
-166 -165 -292 -180 -322 -205 -422 -29 -116 -32 -143 -5 -65 10 30 18 51 19
45 0 -5 -8 -37 -18 -70 -11 -33 -20 -51 -21 -40 -2 17 -3 17 -11 -5 -6 -18 -7
-12 -3 20 7 53 -2 50 -15 -6 -16 -68 -13 5 4 92 8 43 13 79 11 81 -2 2 -15
-40 -30 -93 -37 -128 -47 -302 -22 -368 17 -45 67 -97 143 -151 24 -17 43 -32
43 -35 0 -3 -33 -17 -73 -32 -39 -16 -88 -43 -108 -60 -19 -18 -28 -28 -20
-22 34 25 78 43 97 39 10 -2 22 -4 27 -4 4 -1 7 -5 7 -10 0 -4 -10 -6 -22 -4
-14 2 -50 -10 -89 -31 -37 -19 -70 -32 -73 -28 -4 3 -4 -1 -1 -9 4 -11 -1 -18
-14 -22 -12 -3 -21 -13 -21 -22 0 -13 7 -16 29 -13 23 3 32 -1 42 -19 7 -13
20 -23 29 -23 15 0 16 -9 12 -72 l-4 -73 78 0 c44 -1 140 -5 214 -9 153 -10
222 0 281 39 l37 24 6 -22 c3 -12 6 -50 6 -84 0 -34 3 -68 6 -77 8 -21 65 -21
103 -1 24 12 38 12 84 3 51 -11 65 -9 159 17 75 21 112 36 134 58 22 20 34 25
39 17 10 -16 53 -8 154 29 l83 30 142 -40 c137 -40 144 -41 250 -35 l109 6 40
-36 c61 -56 96 -66 243 -72 150 -5 263 6 444 47 l125 28 23 -43 c18 -36 34
-50 90 -77 37 -19 94 -39 127 -47 33 -7 70 -19 83 -28 22 -14 25 -13 67 34 24
27 42 55 40 62 -3 7 -1 10 4 7 5 -3 12 3 16 14 10 34 46 71 68 71 11 0 65 -18
118 -40 115 -47 130 -49 127 -16 -2 17 -7 22 -17 18 -10 -4 -11 -7 -3 -10 7
-2 12 -8 12 -14 0 -6 -8 -4 -17 4 -10 9 -25 13 -33 10 -11 -4 -10 0 3 16 18
20 18 20 -2 15 -12 -3 -21 -13 -22 -22 -1 -9 -4 -5 -8 9 -4 14 -16 29 -26 35
-28 14 -103 90 -82 82 9 -3 17 -2 17 3 0 5 7 6 17 3 11 -5 14 -3 9 6 -5 7 -17
10 -28 8 -24 -7 -48 1 -48 15 0 6 -8 17 -17 24 -10 7 -15 15 -12 19 4 3 15 -2
25 -12 9 -10 19 -17 22 -15 2 2 7 0 10 -4 4 -4 1 -4 -5 0 -7 4 -13 3 -13 -2 0
-6 11 -9 24 -8 24 1 24 1 5 19 -27 25 -24 44 4 21 22 -18 22 -18 5 1 -17 18
-17 21 15 53 29 32 30 33 5 18 -14 -10 -29 -24 -32 -32 -4 -11 -13 -13 -27 -9
-14 5 -25 2 -30 -6 -8 -11 -12 -10 -24 5 -13 18 -20 15 -16 -7 1 -8 -73 37
-95 57 -9 8 5 19 60 44 59 29 85 35 158 38 98 4 210 -5 203 -16 -3 -5 4 -6 15
-3 11 3 26 1 33 -4 6 -5 24 -8 40 -7 18 2 25 -1 21 -8 -5 -7 -2 -9 8 -5 9 3
38 -1 64 -9 33 -10 50 -11 52 -4 3 7 8 7 15 2 14 -10 60 -24 96 -28 28 -4 45
-25 30 -39 -7 -7 -14 -5 -22 5 -7 8 -21 16 -32 18 l-20 2 20 -11 c28 -17 36
-31 24 -45 -7 -8 -6 -15 3 -20 7 -4 10 -4 6 1 -11 12 16 33 48 35 46 3 56 1
48 -12 -4 -7 -3 -8 5 -4 8 5 7 13 -4 29 -22 32 -19 42 24 72 22 15 44 41 50
57 13 37 13 41 4 35 -5 -3 -7 15 -6 39 2 76 -17 196 -46 282 -15 45 -26 82
-24 82 1 0 14 -21 28 -47 20 -38 24 -42 19 -18 -4 17 -9 35 -13 40 -3 6 -7 18
-8 28 -2 10 -12 35 -23 57 -20 39 -27 90 -12 90 30 -1 65 -86 97 -240 13 -63
24 -105 24 -93 2 47 -40 218 -77 320 -22 59 -43 117 -47 128 -5 13 2 9 21 -13
16 -18 43 -36 59 -41 25 -6 31 -13 36 -47 8 -56 31 -96 85 -143 50 -44 59 -46
114 -31 42 11 63 43 79 118 13 63 1 101 -48 146 -38 36 -43 71 -8 62 12 -3 25
-6 28 -6 4 0 9 -8 12 -17 3 -10 13 -36 21 -58 l16 -40 -2 65 -3 64 40 28 c52
36 117 37 249 3 54 -14 117 -25 140 -24 58 0 128 29 143 59 9 19 20 25 45 25
32 0 33 1 31 39 -2 25 -11 49 -25 63 -29 31 -87 67 -95 59 -4 -3 -1 -6 5 -6
15 0 92 -69 92 -82 0 -5 -14 1 -32 13 -20 15 -50 24 -87 27 -35 2 -61 10 -68
20 -12 14 -13 14 -13 -2 0 -15 -5 -17 -27 -12 -40 10 -65 14 -88 15 -17 1 -18
3 -5 12 11 8 8 9 -13 4 -18 -3 -26 -2 -23 4 4 6 -10 15 -31 20 -39 11 -126 60
-108 61 6 0 28 -9 50 -20 22 -11 46 -20 54 -20 8 0 -8 12 -37 26 -29 14 -52
30 -52 35 0 5 18 22 40 37 33 23 39 33 40 63 0 56 -28 79 -100 79 -57 0 -88
14 -53 23 16 4 16 5 -1 6 -12 1 -16 6 -12 16 13 36 29 183 22 217 -4 21 -18
50 -32 65 l-25 28 16 -32 c15 -32 9 -43 -12 -22 -7 7 -29 7 -73 -1 -104 -19
-139 1 -160 91 -19 78 -22 51 -4 -35 20 -96 14 -121 -10 -38 -20 72 -51 146
-42 100 7 -31 -2 -60 -15 -52 -8 5 -13 -10 -10 -29 1 -5 -3 -6 -9 -2 -5 3 -10
2 -10 -3 0 -16 -73 -118 -127 -176 -59 -63 -167 -158 -198 -172 -11 -5 -60 -8
-109 -6 l-90 4 69 39 c84 49 98 61 205 161 47 44 95 89 107 100 31 28 85 143
91 195 2 24 -1 57 -8 74 l-13 32 -86 -6 c-47 -3 -95 -8 -106 -12 -15 -6 -17
-5 -9 4 6 7 33 19 60 27 46 13 47 13 9 8 -22 -3 -48 -7 -57 -10 -13 -4 -25 17
-59 105 -24 61 -44 109 -46 107 -2 -2 10 -41 27 -87 41 -110 38 -125 -30 -165
-69 -41 -101 -45 -37 -4 26 16 47 35 46 42 -1 31 -56 161 -63 147 -10 -23 4
43 16 74 7 18 14 24 22 18 8 -6 22 16 47 73 23 53 31 83 23 83 -7 0 -10 -7 -6
-16 3 -9 1 -13 -3 -9 -11 11 -67 -75 -106 -161 -18 -39 -33 -70 -35 -68 -2 1
1 32 7 67 6 36 12 75 14 87 2 12 20 53 40 92 21 39 34 75 29 82 -4 7 -3 9 4 5
14 -9 31 22 25 45 -3 11 -1 25 4 32 6 6 13 27 16 45 6 30 4 32 -21 33 -15 1
-50 3 -79 5 -29 2 -55 -1 -58 -6 -3 -6 4 -11 17 -11 13 -1 3 -5 -22 -10 -25
-4 -82 -19 -127 -33 -130 -40 -252 -49 -673 -48 -212 0 -404 3 -426 5 -23 3
-66 19 -96 36 -66 37 -84 39 -43 5 26 -22 27 -24 5 -13 -32 16 -55 39 -40 39
6 0 8 5 5 10 -4 6 -11 8 -16 5 -12 -8 -11 0 3 46 12 42 30 49 64 24 12 -8 23
-12 26 -10 2 3 31 0 64 -5 120 -18 306 -31 584 -40 309 -10 503 -1 617 28 69
17 118 18 108 1 -4 -5 22 -8 62 -8 60 2 63 3 28 9 -22 4 -35 8 -29 9 7 0 11 9
10 19 -1 12 8 18 32 20 18 2 30 7 27 12 -3 5 -13 6 -22 3 -12 -5 -15 -2 -11 8
7 18 -27 43 -44 33 -7 -4 -8 -3 -4 4 4 7 -6 18 -26 27 -24 10 -26 13 -8 9 14
-3 51 -21 83 -40 32 -18 55 -29 52 -24 -4 6 -39 28 -78 50 -40 21 -81 46 -92
55 -19 16 -19 16 10 11 44 -8 166 -23 379 -47 188 -22 192 -22 470 -5 324 19
380 27 496 66 103 34 463 209 505 245 24 21 15 18 -45 -14 -122 -64 -381 -157
-545 -195 -119 -28 -266 -46 -355 -44 -72 1 -77 2 -35 7 45 5 48 7 30 18 -11
7 -15 13 -10 13 27 1 -52 30 -81 30 -40 0 -45 15 -9 24 14 4 25 11 25 16 0 6
12 10 26 10 25 0 54 20 54 38 0 5 11 13 25 16 22 6 23 9 13 26 -10 16 -24 20
-63 20 -30 0 -59 6 -71 15 -19 14 -19 14 1 16 11 1 32 2 47 2 15 0 25 4 22 9
-3 4 -17 8 -31 8 -13 0 -36 9 -50 20 -19 15 -21 20 -9 20 13 0 16 13 16 80 0
66 -3 80 -16 80 -12 0 -14 10 -12 51 l3 51 50 19 c45 17 68 22 170 34 17 2 77
4 135 5 66 1 96 5 80 10 -14 4 -38 5 -55 3 -28 -4 -29 -3 -10 9 22 15 31 38
14 38 -8 0 -8 4 0 14 10 11 3 13 -36 10 -72 -6 -41 3 87 25 63 11 210 38 325
59 116 22 230 43 255 47 202 30 439 77 565 112 126 34 123 33 139 48 8 8 58
28 112 44 55 16 89 30 78 30 -12 1 -41 -6 -65 -15 -145 -52 -533 -90 -814 -80
-120 4 -124 4 -50 -5 110 -14 519 -4 625 15 92 17 106 18 99 11 -6 -5 -237
-49 -344 -64 -155 -22 -368 -41 -469 -41 -56 0 -153 -6 -216 -14 -164 -21
-581 -32 -610 -16 -12 6 -50 12 -84 12 -33 0 -65 4 -71 7 -5 4 -26 8 -45 10
-19 1 -84 9 -145 17 -60 8 -128 17 -150 20 -22 3 -44 9 -50 14 -5 4 -27 11
-47 15 -21 4 -38 11 -38 16 0 5 -8 9 -17 9 -21 1 -63 33 -63 49 0 6 -6 11 -13
11 -8 0 -22 9 -33 21 -15 16 -16 24 -6 39 16 26 15 30 -5 31 -15 0 -15 2 2 8
12 5 23 4 27 -3 15 -23 8 12 -12 56 -11 25 -24 69 -30 99 -30 150 -141 304
-305 421 l-70 50 52 -48 c53 -50 70 -86 58 -124 -6 -19 -11 -14 -47 37 -23 32
-53 70 -67 86 -47 52 -327 124 -509 132 -56 3 -67 7 -102 39 -22 19 -52 38
-67 42 -16 3 -45 10 -66 15 -54 14 -335 10 -341 -4 -2 -7 -5 -4 -5 6 -1 17
-23 47 -34 47 -3 0 1 -17 8 -37 18 -51 42 -57 118 -32 52 18 78 20 162 16 127
-7 170 -20 218 -67 21 -21 43 -41 50 -43 7 -2 -14 -12 -47 -21 -73 -21 -70
-29 4 -10 81 21 241 18 334 -6 144 -38 199 -66 264 -133 62 -66 107 -140 96
-159 -4 -6 -3 -8 3 -5 6 4 10 -6 9 -23 l-1 -30 -20 27 c-30 43 -126 133 -141
133 -5 0 -73 30 -139 62 -46 22 -245 58 -321 58 -55 0 -176 -43 -226 -80 -15
-11 -30 -20 -33 -20 -3 0 -15 -9 -27 -20 -33 -30 -48 -25 -48 15 0 19 -3 35
-8 35 -4 0 -27 -25 -51 -55 -44 -55 -64 -67 -40 -23 7 12 14 29 15 36 4 23 14
27 25 12 8 -12 9 -11 5 5 -4 15 6 33 37 66 53 57 81 75 145 94 28 9 54 20 58
26 4 8 1 8 -12 2 -11 -6 -53 -16 -94 -23 -41 -7 -90 -22 -109 -33 -19 -12 -31
-15 -27 -8 13 20 -84 -33 -151 -83 -68 -52 -109 -64 -152 -46 -27 11 -28 14
-20 45 5 19 16 47 24 62 8 15 15 33 15 39 0 6 11 28 25 48 18 27 21 36 10 36
-8 0 -15 -5 -15 -11 0 -6 -7 -9 -15 -5 -9 3 -15 0 -15 -10 0 -9 -5 -12 -12 -8
-8 5 -9 2 -5 -10 4 -9 3 -15 -1 -12 -9 5 -42 -29 -42 -43 0 -5 -7 -21 -14 -37
-8 -15 -13 -31 -11 -35 3 -4 -2 -12 -11 -20 -24 -20 -29 -13 -99 158 -10 23
-28 52 -41 64 -13 12 -21 26 -17 32 3 6 1 7 -4 4 -14 -9 -34 16 -34 40 -1 63
28 82 125 83 97 0 77 10 -28 14 -64 2 -86 -1 -82 -9 5 -15 -81 -10 -99 5 -6 5
-40 20 -75 34 l-64 24 57 18 c31 9 55 19 53 21 -2 3 -35 -5 -74 -16 -43 -13
-101 -22 -153 -22 l-84 -2 100 -8 c101 -9 251 -55 276 -85 6 -7 17 -10 26 -7
13 5 14 0 8 -28 -4 -19 -12 -39 -17 -46 -6 -7 -6 -18 0 -30 15 -28 25 -108 17
-142 -6 -27 -9 -29 -26 -21 -10 6 -19 16 -19 23 0 13 -35 61 -72 99 -10 10
-18 21 -18 24 0 7 -26 31 -96 90 -23 19 -68 43 -100 54 -65 22 -119 26 -109 9
4 -6 -2 -5 -13 2 -18 11 -27 8 -76 -30 -31 -24 -56 -46 -56 -50 0 -3 -14 -22
-31 -41 -36 -42 -119 -155 -119 -163 0 -4 -13 -28 -30 -54 -43 -67 -37 -41 10
45 78 143 207 302 272 336 l33 17 -30 -6 c-39 -8 -82 -42 -141 -109 l-47 -53
-58 17 c-206 63 -600 321 -815 535 -39 38 -121 134 -183 213 -62 78 -113 142
-115 142 -1 0 -9 -12 -18 -27z m447 -703 c3 -5 1 -10 -4 -10 -6 0 -11 5 -11
10 0 6 2 10 4 10 3 0 8 -4 11 -10z m1423 -201 c7 -12 11 -24 8 -27 -6 -6 -35
27 -36 41 0 14 15 7 28 -14z m-1254 -35 c3 -8 2 -12 -4 -9 -6 3 -10 10 -10 16
0 14 7 11 14 -7z m1052 -56 c57 -64 109 -218 74 -218 -5 0 -7 8 -3 18 3 9 2
14 -2 9 -5 -4 -10 -37 -12 -75 -2 -37 -7 -89 -12 -117 -5 -32 -6 -3 -3 83 6
167 -9 229 -77 304 -41 46 -43 49 -16 35 17 -8 39 -26 51 -39z m224 32 c0 -5
-2 -10 -4 -10 -3 0 -8 5 -11 10 -3 6 -1 10 4 10 6 0 11 -4 11 -10z m-582 -50
c-43 -35 -122 -151 -133 -195 -4 -16 -10 -24 -12 -18 -13 36 75 176 139 221
46 31 49 27 6 -8z m325 -7 c29 -43 47 -86 46 -111 0 -11 -3 -12 -6 -4 -2 6
-12 12 -22 12 -9 0 -21 4 -27 10 -5 5 -18 11 -29 13 -11 2 -30 8 -42 15 -12 7
-31 12 -42 12 -62 0 19 79 90 89 4 1 18 -16 32 -36z m-963 -180 c0 -5 -12 -9
-27 -10 -19 -1 -22 1 -12 8 17 11 39 12 39 2z m364 -65 c-4 -13 -11 -41 -15
-63 -6 -36 -7 -37 -8 -9 -1 30 16 94 26 94 2 0 1 -10 -3 -22z m-406 -13 c-3
-3 -9 2 -12 12 -6 14 -5 15 5 6 7 -7 10 -15 7 -18z m575 -167 c23 -54 83 -115
132 -134 55 -20 185 -15 258 10 47 17 50 17 69 -1 20 -18 21 -18 14 5 -4 12
-4 37 0 55 l7 32 14 -30 c12 -25 13 -26 8 -5 -3 14 -8 36 -12 49 -4 17 -2 22
6 17 6 -4 11 -11 11 -16 0 -5 5 -21 12 -37 6 -15 11 -31 10 -35 -1 -5 1 -8 5
-8 14 0 73 39 73 48 0 14 73 32 131 32 56 0 136 -31 146 -56 3 -8 11 -14 19
-14 8 0 14 -7 14 -15 0 -8 5 -16 10 -16 6 -1 16 -2 23 -3 7 -1 12 -17 12 -41
0 -45 9 -65 31 -65 8 0 32 -11 52 -25 20 -14 40 -25 44 -25 8 0 43 108 41 127
0 7 3 10 8 7 8 -5 13 9 10 29 0 4 4 7 10 7 5 0 8 4 4 9 -3 5 6 18 20 29 14 11
25 23 25 27 0 4 30 39 68 77 70 73 129 114 184 128 85 21 87 17 10 -19 -87
-42 -180 -121 -233 -197 -27 -40 -129 -222 -129 -232 0 -2 11 -1 24 2 19 5 28
0 43 -23 38 -59 185 -172 271 -208 53 -22 155 -31 240 -21 78 9 160 37 262 87
34 17 67 28 73 24 5 -3 7 -2 4 4 -4 6 15 25 41 42 34 24 40 26 20 8 -15 -14
-24 -27 -21 -30 2 -3 -8 -14 -24 -23 -15 -10 -31 -23 -35 -28 -3 -5 -17 -10
-31 -10 -14 -1 -34 -9 -44 -18 -29 -25 -177 -82 -192 -74 -3 2 -46 0 -96 -4
-49 -4 -117 -4 -150 0 -33 4 -62 3 -63 -2 -2 -5 -20 2 -40 14 -29 17 -34 18
-23 4 23 -28 92 -63 156 -80 103 -26 275 -47 330 -39 27 4 56 6 63 5 6 -2 12
2 12 8 0 5 7 10 15 10 8 0 15 6 15 13 0 14 80 60 89 51 3 -3 -3 -12 -13 -20
-11 -7 -16 -17 -12 -21 9 -9 31 25 31 46 0 8 6 16 14 19 8 3 11 0 7 -7 -14
-21 13 -11 45 19 18 16 36 27 41 24 4 -3 7 -35 6 -72 -1 -64 -1 -65 -8 -22
l-7 45 -1 -57 c-2 -47 -5 -58 -22 -63 -11 -3 -25 -15 -30 -26 -6 -10 -16 -19
-22 -19 -6 0 -29 -18 -51 -41 -22 -23 -43 -36 -46 -30 -4 6 -12 7 -21 1 -13
-8 -12 -10 3 -10 34 0 16 -17 -37 -33 -30 -10 -59 -24 -66 -32 -7 -8 -19 -15
-26 -15 -8 0 -14 -4 -14 -9 0 -4 -28 -16 -62 -26 -35 -9 -79 -24 -98 -32 -19
-8 -44 -19 -55 -24 -80 -33 -239 -46 -375 -29 -52 7 -111 13 -130 15 -19 1
-44 3 -55 4 -18 1 -20 9 -21 89 -1 101 -28 172 -65 172 -16 0 -19 4 -14 21 7
21 5 21 -54 17 -33 -2 -64 -7 -67 -11 -4 -4 1 -17 12 -29 10 -13 0 -6 -22 15
-22 20 -43 35 -46 32 -3 -4 -9 -1 -14 6 -5 8 -3 10 7 4 12 -8 12 -6 0 8 -7 9
-21 17 -30 17 -9 0 -22 5 -27 10 -6 6 -50 22 -100 37 -66 20 -113 27 -186 28
-63 1 -95 -2 -91 -8 4 -7 -1 -8 -13 -3 -10 4 -15 4 -11 0 4 -4 -5 -15 -21 -24
-27 -17 -52 -16 -52 2 0 6 7 8 14 5 10 -4 13 -1 9 9 -7 18 -19 18 -27 -1 -7
-18 2 -45 15 -45 6 0 5 -9 -1 -21 -19 -35 -2 -34 39 4 23 20 56 39 76 43 90
17 265 -23 318 -72 14 -13 27 -19 29 -14 2 6 17 -2 33 -16 17 -14 42 -33 57
-42 15 -9 30 -22 33 -29 2 -8 0 -11 -5 -8 -6 3 -10 -2 -10 -11 0 -9 -11 -31
-24 -48 -25 -33 -86 -74 -86 -57 0 5 6 12 13 14 7 3 5 6 -6 6 -10 1 -29 8 -42
17 -14 9 -34 14 -45 11 -13 -3 -18 -1 -13 6 4 6 0 8 -10 4 -10 -3 -17 -2 -17
4 0 6 -4 8 -8 5 -5 -3 -26 -1 -47 5 -25 7 -34 14 -26 19 17 10 -21 20 -76 20
-32 0 -43 4 -43 15 0 8 -5 15 -11 15 -5 0 -8 -4 -5 -9 3 -5 -1 -11 -9 -15 -24
-9 -28 14 -5 34 37 32 204 40 257 12 28 -16 33 -15 33 3 0 8 -5 15 -11 15 -5
0 -7 5 -3 12 4 6 3 8 -3 5 -6 -4 -30 0 -53 8 -45 16 -125 21 -102 6 7 -4 -11
-6 -41 -3 -32 2 -71 -1 -93 -9 -22 -7 -43 -12 -47 -11 -4 1 -15 -4 -23 -13
-29 -29 -40 -18 -39 40 1 47 -2 57 -22 70 -31 21 -33 20 -33 -22 -1 -42 -29
-106 -30 -67 0 17 -8 23 -34 27 -71 11 -191 88 -300 190 -27 26 -58 49 -68 53
-10 3 -18 10 -18 16 0 12 -39 48 -52 48 -5 0 -15 15 -23 34 -17 40 -41 61 -30
26 5 -16 4 -20 -5 -15 -30 19 16 140 93 244 60 81 79 101 90 94 6 -3 7 -1 3 5
-4 7 -2 12 4 12 6 0 8 11 4 28 -4 18 -3 23 4 14 7 -10 12 -6 22 17 7 17 17 31
22 31 5 0 19 10 30 23 l19 22 -6 -37 c-4 -28 -2 -38 7 -38 10 0 10 -2 0 -9 -8
-5 -12 -17 -10 -27 3 -13 17 8 44 63 l39 82 7 -78 c3 -43 13 -94 21 -113z
m-588 120 c-4 -13 -9 -31 -11 -40 -3 -10 -20 -27 -37 -39 -18 -12 -26 -16 -19
-9 15 17 16 34 0 24 -7 -5 -8 -3 -4 5 5 7 14 10 22 7 8 -3 13 -2 13 2 -1 4 4
22 12 40 15 36 34 44 24 10z m2413 -27 c45 -23 99 -81 118 -128 22 -53 25
-100 7 -115 -14 -11 -15 -9 -11 19 3 25 1 32 -11 31 -39 -3 -60 4 -85 27 -14
13 -26 21 -26 17 0 -4 -4 -2 -8 4 -27 40 -183 116 -241 117 -9 0 -7 6 8 18 19
15 46 23 146 42 23 4 48 -4 103 -32z m551 -41 c0 -8 -6 0 -14 19 -8 18 -15 36
-15 40 1 13 29 -45 29 -59z m8 -52 c-3 -7 -5 -2 -5 12 0 14 2 19 5 13 2 -7 2
-19 0 -25z m-3477 -10 c0 -18 -2 -20 -9 -8 -6 8 -7 18 -5 22 9 14 14 9 14 -14z
m3199 -98 c8 -14 21 -36 30 -50 10 -14 11 -21 4 -17 -15 10 -17 -2 -3 -23 9
-13 10 -13 10 0 2 19 15 -14 23 -57 5 -23 2 -33 -10 -37 -12 -5 -14 -1 -9 19
4 14 3 25 -2 25 -8 0 -36 72 -37 95 0 6 -8 19 -17 29 -10 10 -15 23 -12 27 3
5 -11 25 -30 45 -20 21 -36 41 -36 45 0 12 72 -70 89 -101z m-3624 65 c0 -19
-3 -35 -7 -35 -5 0 -8 -11 -8 -25 0 -29 -11 -32 -32 -7 -28 31 -31 59 -9 81
33 33 56 27 56 -14z m415 -24 c0 -10 -6 -21 -13 -24 -10 -4 -13 2 -9 19 5 28
22 32 22 5z m17 -48 c-3 -15 -1 -36 4 -45 5 -10 7 -18 5 -18 -13 0 -26 42 -20
65 8 34 18 32 11 -2z m2089 -57 c-3 -14 -11 -26 -17 -26 -6 0 -8 7 -5 16 3 9
6 25 6 37 0 16 3 18 11 10 7 -7 9 -23 5 -37z m-2103 -85 c27 -56 28 -59 13
-94 -10 -26 -19 -35 -30 -31 -9 3 -13 10 -11 15 7 11 -39 23 -88 23 -26 0 -36
4 -33 13 6 16 -10 17 -19 3 -5 -8 -11 -7 -21 1 -12 10 -8 15 23 30 21 9 58 35
83 58 25 22 47 40 50 40 3 0 18 -26 33 -58z m3200 29 c3 -13 1 -18 -6 -13 -7
4 -6 -1 2 -10 22 -27 -3 -71 -73 -125 -91 -72 -97 -72 -34 -3 31 35 66 86 78
117 12 30 24 54 25 54 1 0 5 -9 8 -20z m425 -55 c-3 -3 -9 2 -12 12 -6 14 -5
15 5 6 7 -7 10 -15 7 -18z m-3671 -91 c-3 -3 -12 -4 -19 -1 -8 3 -5 6 6 6 11
1 17 -2 13 -5z m306 -75 c0 -13 6 -27 12 -31 6 -5 6 -8 -2 -8 -8 0 -13 -14
-13 -37 0 -46 -29 -110 -61 -140 -21 -19 -34 -21 -102 -20 -57 2 -80 6 -87 17
-7 10 -10 11 -10 3 0 -7 -4 -13 -10 -13 -5 0 -10 7 -10 15 0 8 3 15 8 15 16 0
0 79 -16 83 -11 3 -8 5 8 7 l25 2 -25 8 c-22 7 -23 8 -4 9 12 1 39 13 60 29
21 15 57 33 79 41 22 7 47 20 56 28 21 18 72 33 82 23 4 -4 9 -18 10 -31z
m-458 -146 c-2 -16 -20 -71 -40 -123 -42 -106 -62 -201 -51 -243 3 -15 23 -45
42 -67 42 -46 35 -51 -18 -15 -31 21 -38 33 -44 71 -14 94 10 204 74 345 29
64 42 75 37 32z m2788 15 c-2 -5 1 -8 8 -8 7 0 10 -2 7 -6 -3 -3 -21 1 -39 9
l-34 14 32 -1 c17 -1 29 -4 26 -8z m-2358 -84 c-9 -9 -19 -13 -23 -10 -3 4 0
11 8 16 24 15 33 11 15 -6z m4488 -31 c-7 -2 -21 -2 -30 0 -10 3 -4 5 12 5 17
0 24 -2 18 -5z m-3443 -23 c0 -5 -4 -10 -10 -10 -5 0 -10 5 -10 10 0 6 5 10
10 10 6 0 10 -4 10 -10z m357 4 c-3 -3 -12 -4 -19 -1 -8 3 -5 6 6 6 11 1 17
-2 13 -5z m3080 0 c-3 -3 -12 -4 -19 -1 -8 3 -5 6 6 6 11 1 17 -2 13 -5z
m-4060 -86 c-3 -7 -5 -2 -5 12 0 14 2 19 5 13 2 -7 2 -19 0 -25z m1338 22 c3
-5 1 -10 -4 -10 -6 0 -11 5 -11 10 0 6 2 10 4 10 3 0 8 -4 11 -10z m-947 -275
c79 -39 183 -57 367 -62 109 -4 172 -9 160 -14 -12 -5 21 -8 85 -8 124 1 337
-16 374 -31 15 -5 41 -10 57 -10 39 0 38 -21 -5 -73 -45 -56 -109 -183 -100
-198 5 -8 3 -9 -6 -4 -10 6 -11 1 -6 -21 4 -19 3 -24 -3 -15 -6 9 -11 -2 -16
-38 -4 -31 -11 -49 -17 -45 -14 9 -3 130 16 175 7 19 16 46 20 62 6 27 6 27
-43 27 -26 0 -115 7 -197 16 -81 8 -159 13 -174 9 -14 -3 -20 -2 -13 2 7 5 -2
17 -28 36 -21 16 -39 24 -39 18 0 -6 4 -11 9 -11 5 0 17 -8 27 -17 15 -16 15
-17 -2 -24 -27 -11 -54 -10 -29 1 l20 9 -20 0 c-11 1 -31 4 -45 6 -22 5 -23 4
-5 -5 21 -11 25 -11 -69 7 -17 4 -35 11 -41 18 -5 6 -32 28 -60 50 l-50 38 45
-46 c43 -46 42 -59 -3 -35 -12 6 -55 44 -95 85 -41 40 -76 73 -80 73 -7 0 60
-72 101 -108 33 -29 28 -42 -7 -18 -33 21 -42 20 -25 -1 8 -11 3 -9 -11 4 -14
12 -32 23 -40 25 -8 2 -21 11 -28 21 -7 9 -20 17 -29 17 -9 0 -13 6 -10 15 4
8 1 17 -5 21 -7 4 -8 3 -4 -4 4 -7 3 -12 -1 -12 -11 0 -68 60 -112 118 -28 35
-31 45 -20 58 11 13 20 8 68 -39 31 -30 71 -62 89 -72z m1062 95 c0 -5 -5 -10
-11 -10 -5 0 -7 5 -4 10 3 6 8 10 11 10 2 0 4 -4 4 -10z m2030 -50 c0 -5 -4
-10 -10 -10 -5 0 -10 5 -10 10 0 6 5 10 10 10 6 0 10 -4 10 -10z m-4325 -52
c24 -24 30 -33 14 -23 -23 17 -65 65 -56 65 1 0 21 -19 42 -42z m89 -166 c13
-42 27 -95 31 -117 l6 -40 -22 34 c-22 32 -59 148 -59 183 0 41 21 13 44 -60z
m2266 48 c8 -5 11 -10 5 -10 -5 0 -17 5 -25 10 -8 5 -10 10 -5 10 6 0 17 -5
25 -10z m-855 -90 c-3 -5 -14 -10 -23 -9 -14 0 -13 2 3 9 27 11 27 11 20 0z
m66 -18 c-7 -2 -18 1 -23 6 -8 8 -4 9 13 5 13 -4 18 -8 10 -11z m354 -32 c-21
-8 -21 -8 25 -23 8 -3 3 -6 -12 -6 -16 -1 -28 4 -28 9 0 6 -19 11 -42 12 l-43
1 45 7 c63 10 78 10 55 0z m-1766 -40 c0 -10 -3 -8 -9 5 -12 27 -12 43 0 25 5
-8 9 -22 9 -30z m1828 34 c-3 -3 -12 -4 -19 -1 -8 3 -5 6 6 6 11 1 17 -2 13
-5z m76 -21 c-7 -2 -19 -2 -25 0 -7 3 -2 5 12 5 14 0 19 -2 13 -5z m-110 -20
c-7 -2 -21 -2 -30 0 -10 3 -4 5 12 5 17 0 24 -2 18 -5z m64 1 c-3 -3 -12 -4
-19 -1 -8 3 -5 6 6 6 11 1 17 -2 13 -5z m-424 -11 c-7 -2 -19 -2 -25 0 -7 3
-2 5 12 5 14 0 19 -2 13 -5z m300 0 c-7 -2 -21 -2 -30 0 -10 3 -4 5 12 5 17 0
24 -2 18 -5z m-1726 -25 c-3 -8 -6 -5 -6 6 -1 11 2 17 5 13 3 -3 4 -12 1 -19z
m1597 11 c-4 -7 -44 0 -44 7 0 2 11 3 24 2 14 -1 23 -5 20 -9z m86 -9 c0 -14
33 -13 48 2 9 9 12 8 12 -5 0 -23 -28 -33 -51 -19 -10 7 -29 12 -41 13 -22 0
-22 1 -3 9 27 12 35 12 35 0z m237 -22 c-3 -7 -5 -2 -5 12 0 14 2 19 5 13 2
-7 2 -19 0 -25z m-2483 -158 c16 -30 37 -68 48 -83 11 -16 18 -30 15 -33 -6
-7 -67 77 -67 92 0 7 -7 20 -16 29 -9 9 -18 37 -20 63 -2 35 -1 39 4 17 4 -16
20 -55 36 -85z m2430 94 c9 -3 16 -14 16 -24 0 -10 8 -21 18 -23 16 -4 16 -5
0 -6 -17 -1 -58 35 -58 51 0 10 3 10 24 2z m63 -86 c-3 -8 -6 -5 -6 6 -1 11 2
17 5 13 3 -3 4 -12 1 -19z m-27 3 c0 -5 -9 -7 -20 -4 -11 3 -20 7 -20 9 0 2 9
4 20 4 11 0 20 -4 20 -9z m-60 -6 c0 -8 -71 -38 -77 -32 -3 3 10 13 28 21 37
16 49 19 49 11z m117 -37 c-3 -8 -6 -5 -6 6 -1 11 2 17 5 13 3 -3 4 -12 1 -19z
m-247 -18 c-20 -13 -33 -13 -25 0 3 6 14 10 23 10 15 0 15 -2 2 -10z m-65 -20
c-27 -12 -43 -12 -25 0 8 5 22 9 30 9 10 0 8 -3 -5 -9z m12 -356 c-3 -3 -12
-4 -19 -1 -8 3 -5 6 6 6 11 1 17 -2 13 -5z m1849 -41 c-10 -10 -19 5 -10 18 6
11 8 11 12 0 2 -7 1 -15 -2 -18z m-2181 -23 c5 -8 11 -7 21 1 9 8 35 9 81 4
59 -6 126 -8 191 -6 41 1 87 -7 85 -15 -5 -24 -47 -104 -55 -104 -4 0 -8 -7
-8 -15 0 -9 -6 -12 -15 -9 -8 3 -22 -1 -30 -10 -19 -19 -81 -21 -112 -3 -12 7
-31 24 -43 39 -21 28 -104 88 -120 88 -5 0 -14 9 -20 20 -8 16 -8 20 4 20 8 0
18 -5 21 -10z m395 -64 c0 -3 -4 -8 -10 -11 -5 -3 -10 -1 -10 4 0 6 5 11 10
11 6 0 10 -2 10 -4z m-20 -39 c0 -2 -9 -12 -20 -22 -24 -21 -27 -14 -4 9 15
15 24 20 24 13z m1000 -17 c0 -5 -5 -10 -11 -10 -5 0 -7 5 -4 10 3 6 8 10 11
10 2 0 4 -4 4 -10z m-107 -47 c16 -8 27 -17 24 -19 -5 -6 -127 53 -127 61 0 5
60 -20 103 -42z m47 22 c48 -25 68 -41 33 -28 -27 10 -99 53 -90 53 4 0 30
-11 57 -25z m50 -73 c-14 -5 -60 18 -60 28 0 4 16 0 36 -9 19 -8 30 -17 24
-19z m57 32 c-3 -3 -12 -4 -19 -1 -8 3 -5 6 6 6 11 1 17 -2 13 -5z m538 -504
c3 -5 1 -10 -4 -10 -6 0 -11 5 -11 10 0 6 2 10 4 10 3 0 8 -4 11 -10z m1279
-117 c3 -7 2 -13 -1 -13 -10 0 -43 32 -43 42 0 11 38 -14 44 -29z m-888 2
c-21 -16 -145 -21 -207 -8 -33 7 -33 7 -9 14 14 4 72 7 130 8 94 0 103 -1 86
-14z m-146 -26 c89 -1 93 -2 65 -14 -36 -17 -183 -19 -205 -4 -13 9 -12 10 2
5 20 -6 35 10 16 17 -7 2 -4 3 7 1 11 -2 63 -4 115 -5z m-2560 -239 c0 -5 -2
-10 -4 -10 -3 0 -8 5 -11 10 -3 6 -1 10 4 10 6 0 11 -4 11 -10z m3255 -317 c1
-12 -2 -20 -7 -17 -4 3 -8 12 -8 20 0 8 -4 13 -9 10 -5 -3 -7 -15 -4 -26 3
-11 0 -20 -6 -20 -6 0 -11 14 -11 31 0 26 3 30 22 27 14 -2 22 -11 23 -25z
m-4238 -95 c-3 -8 -6 -5 -6 6 -1 11 2 17 5 13 3 -3 4 -12 1 -19z m20 0 c-3 -8
-6 -5 -6 6 -1 11 2 17 5 13 3 -3 4 -12 1 -19z m30 -70 c-3 -7 -5 -2 -5 12 0
14 2 19 5 13 2 -7 2 -19 0 -25z m103 -88 c0 -5 -4 -10 -10 -10 -5 0 -10 5 -10
10 0 6 5 10 10 10 6 0 10 -4 10 -10z m370 -250 c20 -6 21 -8 5 -8 -11 0 -31 4
-45 8 -20 6 -21 8 -5 8 11 0 31 -4 45 -8z m71 -8 c-13 -2 -27 0 -32 5 -6 6 3
7 23 4 28 -4 29 -6 9 -9z m-54 -33 c55 -26 76 -58 57 -84 -8 -10 -14 -14 -14
-9 0 6 4 14 9 20 6 5 4 16 -5 28 -7 11 -17 17 -20 13 -4 -4 -1 -13 5 -21 8
-10 9 -16 1 -21 -6 -4 -9 -1 -8 6 2 6 -3 14 -9 16 -15 5 -18 -23 -3 -32 5 -3
7 -11 5 -18 -2 -7 -6 -24 -9 -39 -7 -29 -58 -66 -116 -83 -42 -13 -133 1 -123
19 4 6 -1 5 -10 -3 -9 -7 -17 -10 -17 -5 0 5 -7 0 -15 -10 -8 -11 -15 -16 -15
-12 0 13 37 56 43 50 3 -3 3 3 0 15 -3 12 -1 21 5 21 6 0 8 9 5 19 -5 22 -59
51 -92 51 -32 0 -25 17 19 46 98 65 214 77 307 33z m-320 -4 c-20 -14 -42 -23
-49 -19 -7 4 -8 3 -4 -4 8 -13 -30 -36 -44 -27 -6 3 -10 12 -9 18 0 9 2 9 6 0
2 -7 9 -13 14 -13 4 0 5 7 2 17 -4 10 -2 14 4 10 6 -4 16 0 23 9 7 8 19 13 26
10 7 -3 18 2 24 10 7 8 20 14 29 14 9 0 0 -11 -22 -25z m473 -5 c0 -15 -5 -12
-26 11 -19 22 -19 22 4 10 12 -6 22 -16 22 -21z m-47 -2 c27 -14 49 -55 42
-78 -5 -16 -10 -18 -19 -11 -7 6 -17 7 -22 3 -5 -4 0 4 11 18 11 14 13 20 6
13 -10 -9 -18 -7 -33 7 -11 10 -17 23 -14 29 4 5 1 13 -5 17 -8 5 -9 3 -4 -7
5 -8 -2 -5 -16 6 -13 11 -26 21 -29 24 -10 7 65 -11 83 -21z m193 -56 c-3 -2
-15 1 -28 8 -22 11 -22 10 -4 -4 11 -9 30 -16 44 -16 15 0 21 -4 16 -12 -4 -7
-3 -8 4 -4 7 4 20 2 29 -3 15 -9 14 -11 -12 -12 -16 -2 -38 -3 -47 -3 -9 0
-15 -2 -13 -5 2 -3 -19 -6 -46 -6 -32 0 -49 4 -49 12 0 7 -9 28 -20 48 -33 59
-19 67 60 32 39 -17 68 -32 66 -35z m2949 25 c0 -26 -20 -25 -23 2 -3 16 1 22
10 19 7 -3 13 -12 13 -21z m-3665 -30 c0 -2 -10 -12 -22 -23 l-23 -19 19 23
c18 21 26 27 26 19z m3300 -17 c0 -5 -2 -10 -4 -10 -3 0 -8 5 -11 10 -3 6 -1
10 4 10 6 0 11 -4 11 -10z m-3167 -17 c10 -6 -11 -43 -25 -43 -30 0 -138 -63
-172 -100 -21 -23 -40 -39 -43 -37 -11 12 20 75 60 120 56 64 129 88 180 60z
m-188 -13 c-3 -5 -12 -10 -18 -10 -7 0 -6 4 3 10 19 12 23 12 15 0z m3766 -17
c13 -16 12 -17 -3 -4 -10 7 -18 15 -18 17 0 8 8 3 21 -13z m-2936 -13 c-36 -6
-37 -7 -10 -9 17 -1 41 -8 55 -16 22 -12 23 -14 7 -21 -11 -4 -16 -13 -12 -21
4 -12 0 -14 -16 -10 -22 6 -79 -10 -79 -23 0 -4 -16 0 -35 10 -45 23 -106 11
-150 -28 -29 -27 -30 -27 -7 -1 12 14 20 28 17 31 -9 9 51 48 113 73 34 14 77
23 107 23 l50 -1 -40 -7z m-705 -23 c0 -2 -9 -12 -20 -22 -24 -21 -27 -14 -4
9 15 15 24 20 24 13z m3713 -12 c-3 -9 -8 -14 -10 -11 -3 3 -2 9 2 15 9 16 15
13 8 -4z m-931 -67 c44 -31 53 -43 49 -75 -1 -6 3 -14 9 -18 5 -3 10 -1 10 6
0 7 2 10 5 7 3 -3 3 -12 -1 -21 -4 -13 -11 -14 -31 -6 -18 7 -30 6 -37 -1 -7
-7 -3 -10 13 -10 14 0 20 -4 15 -12 -5 -7 -2 -9 9 -5 9 3 21 -1 29 -11 12 -16
11 -16 -6 -2 -18 14 -19 13 -12 -10 4 -14 9 -40 13 -57 3 -18 10 -33 16 -33 6
0 5 -5 -1 -13 -6 -7 -9 -22 -6 -34 3 -11 1 -24 -5 -27 -7 -5 -8 -1 -5 9 4 11
2 14 -9 9 -10 -3 -18 2 -22 15 -3 12 -11 21 -16 21 -5 0 -9 6 -9 14 0 8 -10
22 -22 30 -12 9 -19 16 -14 16 5 0 2 7 -5 16 -20 25 -21 55 -2 77 14 15 14 19
3 15 -8 -2 -24 -23 -35 -46 -21 -42 -38 -55 -33 -24 2 12 -5 18 -22 20 -24 2
-24 2 -6 -13 11 -8 17 -18 13 -21 -14 -14 -37 18 -31 42 5 19 3 23 -10 18 -9
-3 -16 -1 -16 5 0 6 -6 11 -14 11 -29 0 -25 19 15 64 37 41 84 73 114 75 5 1
31 -14 57 -31z m-2668 14 c3 -5 -1 -9 -9 -9 -8 0 -12 4 -9 9 3 4 7 8 9 8 2 0
6 -4 9 -8z m489 -8 c8 -8 -106 -113 -115 -107 -16 9 -7 47 15 71 12 14 15 22
7 18 -8 -4 -6 0 4 8 19 16 77 22 89 10z m74 -31 c-3 -10 -5 -4 -5 12 0 17 2
24 5 18 2 -7 2 -21 0 -30z m2202 -113 c11 -24 11 -24 -3 -6 -9 11 -16 24 -16
30 0 12 5 7 19 -24z m-269 -15 c0 -5 -5 -3 -10 5 -5 8 -10 20 -10 25 0 6 5 3
10 -5 5 -8 10 -19 10 -25z m-26 -13 c2 -4 -4 -8 -14 -8 -10 0 -16 4 -14 8 3 4
9 8 14 8 5 0 11 -4 14 -8z m37 -15 c-1 -12 -15 -9 -19 4 -3 6 1 10 8 8 6 -3
11 -8 11 -12z m-47 -15 c3 -5 -1 -9 -9 -9 -8 0 -12 4 -9 9 3 4 7 8 9 8 2 0 6
-4 9 -8z m606 -25 c13 -5 13 -6 -1 -6 -9 -1 -24 9 -35 22 -19 22 -19 22 1 6
11 -9 27 -19 35 -22z m-575 -15 c-3 -3 -11 0 -18 7 -9 10 -8 11 6 5 10 -3 15
-9 12 -12z m104 5 c-2 -1 -13 -9 -24 -17 -19 -14 -19 -14 -6 3 7 9 18 17 24
17 6 0 8 -1 6 -3z"/>
<path d="M2336 4957 c3 -10 9 -15 12 -12 3 3 0 11 -7 18 -10 9 -11 8 -5 -6z"/>
<path d="M1777 4700 c-19 -70 5 -174 49 -211 27 -23 94 -39 150 -37 44 1 45 2
11 5 -20 2 -35 8 -33 12 3 4 -11 5 -30 3 -22 -3 -34 0 -34 8 0 7 9 9 23 5 16
-4 13 -1 -9 12 -78 46 -103 84 -113 173 -5 44 -8 50 -14 30z m88 -201 c4 -5
12 -6 18 -3 9 5 9 4 1 -5 -14 -16 -34 -6 -64 32 l-25 32 32 -23 c18 -13 35
-27 38 -33z"/>
<path d="M2300 4561 c0 -6 4 -13 10 -16 6 -3 7 1 4 9 -7 18 -14 21 -14 7z"/>
<path d="M2363 4535 c-17 -7 -39 -27 -47 -44 -25 -47 -20 -131 8 -131 12 0 46
-50 58 -85 5 -17 6 -18 7 -2 1 14 5 16 20 7 11 -5 26 -7 34 -4 8 3 18 0 23 -7
5 -9 2 -10 -10 -6 -10 4 -15 3 -11 -3 3 -6 18 -7 32 -4 15 4 24 3 20 -3 -3 -5
4 -10 16 -11 12 0 46 -4 75 -8 32 -4 52 -3 52 3 0 6 12 9 26 7 20 -2 24 1 19
14 -5 14 -4 14 13 -1 17 -16 19 -15 36 20 11 23 14 39 7 41 -6 2 -7 12 -1 28
9 23 3 29 -23 25 -12 -2 -37 26 -37 42 0 28 -33 79 -64 98 -45 28 -97 41 -112
28 -9 -7 -24 -7 -51 0 -47 13 -51 13 -90 -4z m159 -41 c64 -32 90 -53 81 -67
-3 -6 -1 -7 5 -3 20 12 35 -4 20 -22 -11 -13 -11 -14 1 -8 9 6 12 5 9 -5 -6
-16 -71 -16 -76 0 -2 5 -9 8 -16 5 -8 -3 -16 2 -19 10 -4 9 -12 16 -19 16 -9
0 -9 -3 2 -11 15 -11 -48 -7 -115 6 -29 6 -29 6 -10 -11 17 -14 17 -16 3 -11
-11 4 -18 1 -18 -6 -1 -7 -8 1 -16 16 -8 15 -19 25 -24 22 -13 -8 -13 42 1 66
24 46 103 47 191 3z m64 15 c12 -4 29 -21 37 -37 l14 -30 -60 39 c-33 22 -63
42 -66 45 -7 6 42 -5 75 -17z m131 -193 c0 -8 -6 -12 -14 -9 -7 3 -10 9 -7 14
8 14 21 11 21 -5z m-174 -53 c-7 -2 -19 -2 -25 0 -7 3 -2 5 12 5 14 0 19 -2
13 -5z"/>
<path d="M2330 4456 c0 -2 7 -9 15 -16 13 -11 14 -10 9 4 -5 14 -24 23 -24 12z"/>
<path d="M2762 4415 c0 -16 2 -22 5 -12 2 9 2 23 0 30 -3 6 -5 -1 -5 -18z"/>
<path d="M2218 4093 c12 -2 32 -2 45 0 12 2 2 4 -23 4 -25 0 -35 -2 -22 -4z"/>
<path d="M2099 3979 c-8 -16 -8 -24 2 -33 9 -8 11 -7 6 6 -3 10 1 24 9 33 9 8
11 15 5 15 -6 0 -15 -9 -22 -21z"/>
<path d="M2641 3966 c-10 -12 -8 -13 8 -9 12 3 21 9 21 14 0 14 -16 11 -29 -5z"/>
<path d="M2062 3934 c-7 -8 -8 -14 -3 -14 10 0 25 19 20 25 -2 1 -10 -3 -17
-11z"/>
<path d="M2485 3880 c3 -5 8 -10 11 -10 2 0 4 5 4 10 0 6 -5 10 -11 10 -5 0
-7 -4 -4 -10z"/>
<path d="M2529 3850 c30 -26 49 -26 26 0 -10 11 -25 20 -34 20 -12 -1 -10 -5
8 -20z"/>
<path d="M650 4320 c0 -6 7 -10 15 -10 8 0 15 2 15 4 0 2 -7 6 -15 10 -8 3
-15 1 -15 -4z"/>
<path d="M1620 3707 c0 -14 47 -82 71 -102 l23 -20 -23 30 c-12 17 -33 45 -47
64 -13 19 -24 32 -24 28z"/>
<path d="M1740 3596 c0 -2 8 -10 18 -17 15 -13 16 -12 3 4 -13 16 -21 21 -21
13z"/>
<path d="M1810 3515 c19 -19 36 -35 39 -35 3 0 -10 16 -29 35 -19 19 -36 35
-39 35 -3 0 10 -16 29 -35z"/>
<path d="M2104 3405 c8 -8 18 -15 22 -15 3 0 1 7 -6 15 -7 8 -17 15 -22 15 -5
0 -3 -7 6 -15z"/>
<path d="M2115 2560 c-3 -5 1 -10 10 -10 9 0 13 5 10 10 -3 6 -8 10 -10 10 -2
0 -7 -4 -10 -10z"/>
<path d="M2253 2553 c9 -2 23 -2 30 0 6 3 -1 5 -18 5 -16 0 -22 -2 -12 -5z"/>
<path d="M1219 617 c7 -7 14 -8 21 -1 6 6 2 10 -12 11 -16 2 -18 -1 -9 -10z"/>
<path d="M3496 351 c-13 -15 -14 -20 -4 -24 9 -4 7 -6 -4 -6 -9 -1 -20 -6 -24
-13 -5 -8 -2 -9 9 -5 9 3 19 2 22 -3 4 -6 11 -10 17 -10 6 0 7 5 2 13 -11 15
-11 38 -1 55 12 18 2 15 -17 -7z"/>
<path d="M3566 287 c3 -10 9 -15 12 -12 3 3 0 11 -7 18 -10 9 -11 8 -5 -6z"/>
<path d="M1086 5534 c67 -64 115 -104 127 -104 9 0 -22 31 -51 52 -12 8 -39
30 -60 49 -68 62 -78 64 -16 3z"/>
<path d="M2520 5467 c-30 -5 -50 -11 -45 -13 6 -2 42 2 80 10 39 7 59 14 45
14 -14 0 -50 -5 -80 -11z"/>
<path d="M2438 5443 c7 -3 16 -2 19 1 4 3 -2 6 -13 5 -11 0 -14 -3 -6 -6z"/>
<path d="M2398 5433 c7 -3 16 -2 19 1 4 3 -2 6 -13 5 -11 0 -14 -3 -6 -6z"/>
<path d="M1230 5413 c23 -8 60 -45 55 -53 -3 -5 2 -10 10 -14 8 -3 17 -1 20 4
7 11 -65 70 -85 69 -13 0 -13 -1 0 -6z"/>
<path d="M1245 5380 c10 -11 20 -20 23 -20 3 0 -3 9 -13 20 -10 11 -20 20 -23
20 -3 0 3 -9 13 -20z"/>
<path d="M1324 5339 c-4 -8 -3 -9 4 -5 15 9 16 -6 1 -21 -8 -8 -8 -13 0 -18 6
-3 10 -1 9 6 -2 6 2 13 9 16 8 3 11 -3 8 -18 -4 -17 -2 -20 7 -11 15 15 32 16
23 2 -4 -6 -1 -9 7 -8 7 2 12 -3 10 -10 -1 -8 2 -11 9 -6 6 3 14 2 18 -3 6
-10 117 -63 130 -63 3 0 -27 18 -66 39 -40 21 -93 55 -117 75 -30 25 -47 33
-52 25z"/>
<path d="M3151 5309 c-24 -5 -46 -11 -49 -14 -7 -7 88 6 113 16 l20 8 -20 -1
c-11 0 -40 -4 -64 -9z"/>
<path d="M2833 5235 c0 -8 4 -12 9 -9 4 3 8 9 8 15 0 5 -4 9 -8 9 -5 0 -9 -7
-9 -15z"/>
<path d="M581 5227 c-41 -21 -49 -109 -12 -139 33 -26 43 -23 98 27 l48 45
-39 35 c-25 22 -34 35 -23 35 42 0 74 -24 147 -110 l21 -25 -15 30 c-19 36
-42 63 -80 93 -33 25 -105 30 -145 9z m53 -60 c-16 -18 -30 -33 -30 -35 -1 -2
-4 4 -8 13 -3 9 -2 13 4 10 6 -4 7 1 3 11 -5 14 -9 12 -22 -12 -15 -28 -16
-28 -19 -6 -6 41 45 79 82 60 17 -9 16 -12 -10 -41z"/>
<path d="M3880 5217 c0 -3 12 -12 26 -22 15 -9 23 -12 20 -6 -7 11 -46 35 -46
28z"/>
<path d="M1590 5176 c0 -2 7 -7 16 -10 8 -3 12 -2 9 4 -6 10 -25 14 -25 6z"/>
<path d="M2847 5168 c-15 -5 -25 -14 -22 -18 6 -10 62 7 71 21 7 11 -13 10
-49 -3z"/>
<path d="M1654 5146 c11 -9 24 -16 30 -16 12 0 7 5 -24 19 -24 11 -24 11 -6
-3z"/>
<path d="M521 5124 c0 -11 3 -14 6 -6 3 7 2 16 -1 19 -3 4 -6 -2 -5 -13z"/>
<path d="M3826 5128 c3 -7 37 -28 77 -46 85 -39 79 -30 -15 22 -37 20 -65 31
-62 24z"/>
<path d="M3340 5100 c-11 -8 -7 -9 15 -4 37 8 45 14 19 14 -10 0 -26 -5 -34
-10z"/>
<path d="M1196 5077 c3 -10 9 -15 12 -12 3 3 0 11 -7 18 -10 9 -11 8 -5 -6z"/>
<path d="M3257 5039 c-22 -11 -37 -22 -34 -25 2 -2 24 7 48 21 52 30 41 33
-14 4z"/>
<path d="M1240 5023 c0 -5 11 -20 25 -33 14 -13 25 -21 25 -17 0 3 -11 18 -25
33 -14 15 -25 23 -25 17z"/>
<path d="M4151 4995 c84 -95 176 -223 222 -310 27 -50 19 -18 -12 48 -37 81
-138 209 -217 277 -23 20 -22 17 7 -15z"/>
<path d="M800 4972 c-25 -8 -82 -72 -64 -72 28 0 76 31 70 45 -3 8 0 16 7 18
17 6 5 15 -13 9z"/>
<path d="M1340 4926 c0 -2 7 -7 16 -10 8 -3 12 -2 9 4 -6 10 -25 14 -25 6z"/>
<path d="M3150 4890 c0 -5 5 -10 11 -10 5 0 7 5 4 10 -3 6 -8 10 -11 10 -2 0
-4 -4 -4 -10z"/>
<path d="M4085 4880 c3 -5 8 -10 11 -10 2 0 4 5 4 10 0 6 -5 10 -11 10 -5 0
-7 -4 -4 -10z"/>
<path d="M836 4845 c3 -16 6 -37 7 -46 1 -9 7 -14 14 -12 10 4 11 9 3 19 -6 7
-16 25 -21 41 l-9 28 6 -30z"/>
<path d="M286 4699 c-45 -11 -76 -35 -76 -58 1 -14 2 -13 11 2 20 34 70 51
154 51 44 1 94 -2 110 -7 26 -6 27 -6 10 5 -25 15 -159 20 -209 7z"/>
<path d="M4410 4607 c0 -5 11 -32 25 -60 25 -54 73 -110 109 -129 12 -5 5 4
-15 20 -19 17 -50 57 -67 89 -38 69 -52 91 -52 80z"/>
<path d="M5008 4323 c6 -2 18 -2 25 0 6 3 1 5 -13 5 -14 0 -19 -2 -12 -5z"/>
<path d="M5128 4313 c18 -2 45 -2 60 0 15 2 0 4 -33 4 -33 0 -45 -2 -27 -4z"/>
<path d="M5268 4303 c18 -2 45 -2 60 0 15 2 0 4 -33 4 -33 0 -45 -2 -27 -4z"/>
<path d="M5388 4293 c12 -2 32 -2 45 0 12 2 2 4 -23 4 -25 0 -35 -2 -22 -4z"/>
<path d="M5538 4283 c18 -2 45 -2 60 0 15 2 0 4 -33 4 -33 0 -45 -2 -27 -4z"/>
<path d="M5683 4273 c20 -2 54 -2 75 0 20 2 3 4 -38 4 -41 0 -58 -2 -37 -4z"/>
<path d="M5857 4263 c18 -2 50 -2 70 0 21 2 7 4 -32 4 -38 0 -55 -2 -38 -4z"/>
<path d="M6720 3969 c-52 -50 -72 -73 -45 -51 49 39 154 142 145 142 -3 0 -48
-41 -100 -91z"/>
<path d="M5703 4023 c9 -2 14 -9 11 -15 -4 -7 -2 -8 5 -4 15 10 4 26 -17 25
-15 -1 -15 -2 1 -6z"/>
<path d="M5540 3980 c0 -5 5 -10 10 -10 6 0 10 5 10 10 0 6 -4 10 -10 10 -5 0
-10 -4 -10 -10z"/>
<path d="M5150 3850 c-8 -5 -10 -10 -5 -10 6 0 17 5 25 10 8 5 11 10 5 10 -5
0 -17 -5 -25 -10z"/>
<path d="M5240 3290 c0 -5 7 -10 16 -10 8 0 12 5 9 10 -3 6 -10 10 -16 10 -5
0 -9 -4 -9 -10z"/>
<path d="M11 3065 c-2 -81 18 -173 49 -235 43 -86 53 -82 15 6 -21 48 -38 108
-45 163 -16 118 -18 123 -19 66z"/>
<path d="M2870 3090 c0 -5 7 -7 15 -4 8 4 15 8 15 10 0 2 -7 4 -15 4 -8 0 -15
-4 -15 -10z"/>
<path d="M2865 3050 c8 -13 145 -94 150 -88 2 2 -32 25 -76 50 -44 26 -77 43
-74 38z"/>
<path d="M4663 2443 c9 -2 25 -2 35 0 9 3 1 5 -18 5 -19 0 -27 -2 -17 -5z"/>
<path d="M4598 2433 c6 -2 18 -2 25 0 6 3 1 5 -13 5 -14 0 -19 -2 -12 -5z"/>
<path d="M4785 2416 c10 -14 19 -26 22 -26 7 0 -17 39 -28 46 -6 3 -3 -5 6
-20z"/>
<path d="M4820 2353 c0 -16 31 -95 36 -90 2 2 -5 25 -16 53 -10 27 -19 43 -20
37z"/>
<path d="M939 2170 c-5 -121 -12 -176 -33 -250 -32 -118 -32 -151 0 -50 33
104 46 206 42 340 l-3 115 -6 -155z"/>
<path d="M4720 2228 c-14 -39 -25 -47 -33 -25 -2 6 -2 0 0 -14 4 -25 -29 -95
-52 -111 -6 -5 -4 -8 5 -8 23 0 67 61 85 118 20 60 15 95 -5 40z"/>
<path d="M4875 2220 c9 -16 18 -30 21 -30 2 0 -2 14 -11 30 -9 17 -18 30 -21
30 -2 0 2 -13 11 -30z"/>
<path d="M4772 708 c-1 -31 -6 -68 -12 -83 -6 -16 -6 -24 0 -20 13 8 22 63 17
115 -3 42 -4 42 -5 -12z"/>
<path d="M4127 474 c-3 -5 11 -9 31 -9 44 -1 182 -44 182 -57 0 -5 5 -6 12 -2
7 5 9 2 5 -8 -4 -11 2 -18 18 -22 21 -5 51 -56 46 -79 -1 -5 3 -6 9 -2 5 3 15
-5 21 -19 6 -13 17 -22 24 -19 8 2 24 -2 37 -10 33 -21 71 -28 88 -16 13 9 13
10 0 8 -34 -3 -49 1 -44 15 7 19 -14 30 -31 16 -8 -7 -15 -7 -19 -1 -4 6 -14
7 -23 4 -10 -4 -14 -2 -10 4 11 17 -4 45 -20 39 -8 -3 -12 -2 -8 3 3 5 -2 16
-10 24 -8 9 -15 20 -15 26 0 6 -10 11 -22 12 -13 0 -17 3 -11 6 10 4 10 7 0
18 -17 17 -97 57 -97 49 0 -4 -7 -1 -15 6 -18 15 -140 26 -148 14z m423 -208
c0 -3 -4 -8 -10 -11 -5 -3 -10 -1 -10 4 0 6 5 11 10 11 6 0 10 -2 10 -4z"/>
<path d="M4271 421 c-8 -6 -9 -11 -3 -15 6 -3 14 -1 17 5 9 14 2 20 -14 10z"/>
<path d="M4675 370 c-4 -6 -4 -14 -1 -17 3 -4 6 0 6 7 0 9 5 7 14 -6 8 -10 17
-16 20 -13 3 3 -2 14 -13 23 -13 12 -21 14 -26 6z"/>
<path d="M4562 343 c-6 -2 -10 -9 -6 -14 3 -5 -2 -9 -10 -9 -22 0 -20 -4 15
-39 31 -32 49 -39 49 -20 0 5 -4 8 -9 5 -5 -3 -16 5 -25 19 -9 14 -12 25 -6
25 6 0 13 -7 16 -15 4 -9 17 -14 33 -14 23 2 24 2 4 6 -13 2 -23 9 -23 15 0 5
8 7 17 4 9 -4 5 4 -11 19 -15 14 -28 25 -29 24 -1 0 -8 -3 -15 -6z"/>
<path d="M4285 320 c-3 -5 -1 -10 4 -10 6 0 11 5 11 10 0 6 -2 10 -4 10 -3 0
-8 -4 -11 -10z"/>
<path d="M4248 313 c7 -3 16 -2 19 1 4 3 -2 6 -13 5 -11 0 -14 -3 -6 -6z"/>
<path d="M4338 303 c7 -3 16 -2 19 1 4 3 -2 6 -13 5 -11 0 -14 -3 -6 -6z"/>
<path d="M4215 291 c-3 -5 -2 -12 3 -15 5 -3 9 1 9 9 0 17 -3 19 -12 6z"/>
<path d="M4380 285 c0 -8 7 -15 16 -15 8 0 12 -4 9 -10 -3 -6 1 -7 9 -4 21 8
20 9 -9 28 -22 14 -25 15 -25 1z"/>
<path d="M4036 263 c-6 -14 -5 -15 5 -6 7 7 10 15 7 18 -3 3 -9 -2 -12 -12z"/>
<path d="M4645 270 c-3 -5 -1 -10 4 -10 6 0 11 5 11 10 0 6 -2 10 -4 10 -3 0
-8 -4 -11 -10z"/>
<path d="M4620 262 c0 -7 7 -20 15 -28 8 -9 15 -11 15 -6 0 5 7 9 15 9 8 0 15
-4 15 -8 0 -5 7 -6 15 -3 14 6 13 8 -2 19 -10 7 -20 10 -23 6 -8 -11 -30 -7
-40 9 -7 11 -10 12 -10 2z"/>
<path d="M4053 235 c0 -8 4 -15 9 -15 4 0 8 7 8 15 0 8 -4 15 -8 15 -5 0 -9
-7 -9 -15z"/>
<path d="M4432 234 c-9 -9 -9 -14 -1 -14 6 0 19 -10 30 -22 l19 -23 -12 30
c-16 42 -21 45 -36 29z"/>
<path d="M4221 206 c-12 -14 -12 -16 3 -10 9 3 16 1 16 -5 0 -6 5 -11 11 -11
5 0 7 5 4 10 -3 6 -1 10 4 10 6 0 11 5 11 11 0 8 -4 8 -14 0 -11 -9 -15 -9
-18 0 -2 7 -8 6 -17 -5z"/>
<path d="M4270 179 c0 -5 5 -7 10 -4 6 3 10 8 10 11 0 2 -4 4 -10 4 -5 0 -10
-5 -10 -11z"/>
<path d="M4454 154 c2 -16 5 -36 6 -44 1 -8 6 -2 11 15 6 22 5 33 -6 44 -12
12 -14 10 -11 -15z"/>
<path d="M4244 155 c-9 -23 4 -48 21 -41 8 3 15 1 15 -4 0 -6 4 -10 10 -10 5
0 7 7 4 15 -4 10 -14 14 -28 10 -20 -6 -20 -5 -2 6 16 10 22 9 32 -6 7 -10 18
-14 25 -10 14 9 -25 34 -54 35 -10 0 -15 5 -12 10 3 6 4 10 0 10 -3 0 -8 -7
-11 -15z"/>
<path d="M4183 142 c0 -12 5 -22 9 -22 11 0 10 12 -2 30 -7 12 -9 10 -7 -8z"/>
<path d="M4340 126 c0 -2 9 -6 20 -9 11 -3 20 -1 20 4 0 5 -9 9 -20 9 -11 0
-20 -2 -20 -4z"/>
<path d="M4342 84 c9 -9 21 -13 27 -10 14 9 14 26 0 26 -5 0 -7 -4 -4 -10 3
-5 1 -10 -4 -10 -6 0 -11 5 -11 10 0 6 -5 10 -12 10 -8 0 -7 -6 4 -16z"/>
</g>
</svg>
